<svg id="svg" version="1.1" xmlns="http://www.w3.org/2000/svg" xmlns:xlink="http://www.w3.org/1999/xlink" width="400" height="389.12000000000006" viewBox="0, 0, 400,389.12000000000006"><g id="svgg"><path id="path0" d="M188.970 0.079 C 188.941 0.105,188.054 0.171,187.000 0.226 C 185.002 0.330,183.162 0.464,182.167 0.577 C 181.846 0.614,180.983 0.689,180.250 0.745 C 179.101 0.832,177.871 0.965,175.750 1.232 C 175.475 1.267,174.762 1.345,174.167 1.407 C 173.571 1.468,172.671 1.587,172.167 1.670 C 171.662 1.754,170.875 1.866,170.417 1.920 C 169.958 1.973,168.983 2.125,168.250 2.256 C 167.517 2.387,166.242 2.610,165.417 2.751 C 164.592 2.892,162.792 3.227,161.417 3.496 C 160.042 3.764,158.692 4.019,158.417 4.061 C 158.142 4.104,157.879 4.154,157.833 4.173 C 157.787 4.191,157.690 4.196,157.617 4.184 C 157.544 4.172,157.019 4.283,156.451 4.432 C 155.882 4.581,155.192 4.739,154.917 4.782 C 154.642 4.825,153.704 5.053,152.833 5.287 C 151.962 5.521,150.987 5.767,150.667 5.834 C 149.744 6.026,144.393 7.494,143.618 7.767 C 143.232 7.903,142.654 8.056,142.333 8.107 C 142.012 8.158,141.676 8.245,141.586 8.300 C 141.496 8.356,141.309 8.411,141.170 8.424 C 140.495 8.485,126.483 13.378,126.059 13.700 C 125.953 13.780,125.717 13.875,125.534 13.910 C 125.350 13.946,124.799 14.161,124.308 14.389 C 123.165 14.920,120.871 15.863,120.757 15.849 C 120.709 15.843,120.404 15.987,120.079 16.169 C 119.755 16.351,119.418 16.500,119.330 16.500 C 119.243 16.500,118.251 16.940,117.127 17.477 C 112.693 19.597,112.168 19.839,112.103 19.796 C 112.065 19.770,111.887 19.884,111.707 20.047 C 111.527 20.210,111.212 20.376,111.007 20.415 C 110.802 20.455,110.006 20.827,109.238 21.242 C 106.963 22.472,105.294 23.358,104.583 23.711 C 104.217 23.894,103.892 24.109,103.861 24.189 C 103.830 24.270,103.736 24.293,103.652 24.241 C 103.569 24.189,103.500 24.231,103.500 24.333 C 103.500 24.436,103.425 24.473,103.333 24.417 C 103.242 24.360,103.166 24.374,103.166 24.448 C 103.166 24.523,102.828 24.722,102.416 24.892 C 102.004 25.061,101.667 25.280,101.667 25.378 C 101.667 25.475,101.623 25.512,101.570 25.459 C 101.516 25.405,100.823 25.757,100.028 26.240 C 99.233 26.724,97.891 27.509,97.045 27.985 C 96.198 28.462,95.392 28.965,95.253 29.104 C 95.114 29.243,95.000 29.314,95.000 29.262 C 95.000 29.210,94.119 29.760,93.042 30.485 C 91.965 31.210,90.877 31.897,90.625 32.012 C 90.373 32.126,90.167 32.283,90.167 32.360 C 90.167 32.437,90.073 32.501,89.958 32.501 C 89.784 32.503,86.989 34.381,86.167 35.050 C 86.029 35.161,85.144 35.768,84.199 36.397 C 83.255 37.027,82.392 37.629,82.283 37.735 C 82.173 37.842,81.802 38.101,81.458 38.311 C 81.115 38.522,80.833 38.763,80.833 38.847 C 80.833 38.931,80.734 39.000,80.612 39.000 C 80.491 39.000,80.210 39.195,79.987 39.433 C 79.765 39.671,79.321 40.005,79.000 40.176 C 78.679 40.346,78.157 40.719,77.839 41.005 C 77.521 41.290,77.052 41.647,76.797 41.798 C 76.542 41.949,76.333 42.122,76.333 42.183 C 76.333 42.243,75.933 42.596,75.443 42.965 C 74.954 43.335,74.429 43.762,74.277 43.914 C 74.124 44.066,73.999 44.129,73.997 44.054 C 73.996 43.978,73.940 43.994,73.872 44.088 C 73.805 44.182,73.412 44.519,73.000 44.837 C 72.587 45.156,72.137 45.540,72.000 45.691 C 71.862 45.843,71.000 46.582,70.083 47.336 C 69.167 48.089,68.221 48.903,67.983 49.144 C 67.744 49.386,66.999 50.071,66.328 50.667 C 65.656 51.262,65.013 51.844,64.899 51.958 C 64.784 52.073,64.658 52.167,64.619 52.167 C 64.580 52.167,64.180 52.523,63.731 52.958 C 63.282 53.394,62.390 54.249,61.749 54.860 C 59.720 56.792,53.638 63.014,51.999 64.833 C 51.132 65.796,50.084 66.936,49.670 67.368 C 49.256 67.800,48.842 68.250,48.750 68.369 C 48.283 68.977,46.117 71.502,45.557 72.092 C 45.205 72.463,44.694 73.101,44.421 73.509 C 44.148 73.916,43.510 74.746,43.004 75.353 C 42.498 75.959,41.933 76.664,41.750 76.919 C 41.567 77.174,41.212 77.616,40.961 77.900 C 40.710 78.184,40.396 78.643,40.263 78.919 C 40.130 79.196,39.829 79.602,39.594 79.823 C 39.359 80.044,39.167 80.287,39.167 80.362 C 39.167 80.438,39.035 80.645,38.875 80.821 C 38.437 81.304,38.266 81.525,37.572 82.512 C 37.222 83.010,36.800 83.551,36.634 83.715 C 36.469 83.879,36.333 84.116,36.333 84.243 C 36.333 84.369,36.277 84.497,36.208 84.528 C 36.140 84.558,35.753 85.071,35.349 85.667 C 34.237 87.307,33.374 88.537,33.016 88.995 C 32.838 89.222,32.729 89.466,32.773 89.537 C 32.817 89.608,32.774 89.667,32.677 89.667 C 32.579 89.667,32.500 89.779,32.500 89.917 C 32.500 90.054,32.425 90.167,32.333 90.167 C 32.242 90.167,32.167 90.231,32.167 90.310 C 32.167 90.389,31.504 91.458,30.693 92.685 C 29.883 93.913,29.077 95.178,28.902 95.497 C 28.727 95.816,28.490 96.178,28.375 96.301 C 28.260 96.423,28.167 96.591,28.167 96.673 C 28.167 96.755,27.743 97.518,27.226 98.369 C 26.709 99.220,26.156 100.142,25.999 100.417 C 25.841 100.692,25.444 101.371,25.117 101.927 C 24.789 102.482,24.498 103.045,24.469 103.177 C 24.440 103.309,24.369 103.454,24.311 103.500 C 24.253 103.546,24.022 103.958,23.798 104.417 C 23.574 104.875,22.975 106.000,22.466 106.917 C 21.958 107.833,21.220 109.258,20.827 110.083 C 20.434 110.908,19.908 111.996,19.658 112.500 C 18.854 114.120,16.462 119.228,16.423 119.409 C 16.402 119.505,16.304 119.771,16.205 120.000 C 15.639 121.316,14.368 124.394,13.832 125.750 C 13.760 125.933,13.581 126.357,13.434 126.692 C 13.287 127.027,13.167 127.420,13.167 127.567 C 13.167 127.713,13.092 127.833,13.000 127.833 C 12.908 127.833,12.851 127.890,12.872 127.958 C 12.894 128.027,12.754 128.496,12.562 129.000 C 11.991 130.500,11.281 132.578,8.862 139.833 C 8.740 140.200,8.730 140.227,8.623 140.500 C 8.398 141.076,8.139 142.026,8.079 142.500 C 8.044 142.779,7.964 143.090,7.902 143.190 C 7.840 143.291,7.731 143.608,7.659 143.895 C 7.587 144.182,7.366 144.979,7.168 145.667 C 6.411 148.295,5.385 152.212,5.251 152.986 C 5.197 153.299,5.122 153.604,5.085 153.664 C 5.048 153.724,4.982 153.956,4.939 154.178 C 4.896 154.401,4.709 155.296,4.525 156.167 C 4.341 157.037,4.031 158.612,3.836 159.667 C 3.640 160.721,3.377 162.071,3.249 162.667 C 3.122 163.262,2.944 164.200,2.853 164.750 C 2.762 165.300,2.501 166.837,2.272 168.167 C 1.866 170.534,1.082 176.438,0.912 178.417 C 0.864 178.967,0.714 180.542,0.577 181.917 C 0.441 183.292,0.338 184.642,0.348 184.917 C 0.359 185.192,0.353 185.454,0.336 185.500 C -0.058 186.554,0.014 210.774,0.421 214.167 C 0.460 214.487,0.502 215.012,0.514 215.333 C 0.544 216.056,0.789 218.962,0.916 220.083 C 1.198 222.576,1.701 226.535,1.837 227.333 C 1.924 227.838,2.037 228.550,2.089 228.917 C 2.392 231.054,3.092 235.055,3.503 237.000 C 3.765 238.237,4.056 239.700,4.150 240.250 C 4.533 242.496,4.851 244.052,4.966 244.243 C 5.019 244.331,5.080 244.566,5.101 244.766 C 5.183 245.537,8.039 256.093,8.456 257.167 C 8.509 257.304,8.545 257.462,8.534 257.518 C 8.509 257.654,9.789 261.659,9.993 262.083 C 10.081 262.267,10.299 262.867,10.478 263.417 C 10.656 263.967,11.070 265.147,11.398 266.040 C 11.725 266.933,12.028 267.833,12.071 268.040 C 12.113 268.247,12.378 268.998,12.658 269.708 C 12.938 270.419,13.380 271.544,13.641 272.208 C 14.342 273.998,15.585 276.916,15.842 277.377 C 15.932 277.538,16.125 278.026,16.271 278.460 C 16.541 279.261,16.736 279.697,18.401 283.225 C 18.914 284.312,19.333 285.262,19.333 285.337 C 19.333 285.411,19.393 285.497,19.466 285.528 C 19.609 285.588,20.333 287.071,20.333 287.304 C 20.333 287.434,21.232 289.154,23.006 292.417 C 23.405 293.150,23.950 294.200,24.218 294.750 C 24.487 295.300,24.791 295.805,24.895 295.872 C 24.998 295.940,25.018 295.996,24.938 295.997 C 24.858 295.999,24.869 296.094,24.962 296.208 C 25.055 296.323,25.278 296.679,25.458 297.000 C 26.405 298.687,28.268 301.778,28.454 301.970 C 28.571 302.091,28.667 302.298,28.667 302.429 C 28.667 302.560,28.746 302.667,28.843 302.667 C 28.940 302.667,28.980 302.730,28.932 302.808 C 28.884 302.886,28.995 303.111,29.179 303.308 C 29.363 303.505,29.471 303.667,29.420 303.667 C 29.370 303.667,29.723 304.232,30.206 304.924 C 30.688 305.616,31.158 306.309,31.250 306.466 C 31.342 306.622,31.660 307.106,31.958 307.542 C 32.256 307.978,32.500 308.373,32.500 308.420 C 32.500 308.467,33.044 309.300,33.708 310.271 C 35.380 312.714,35.401 312.743,35.542 312.806 C 35.610 312.836,35.667 312.967,35.667 313.097 C 35.667 313.227,35.730 313.333,35.807 313.333 C 35.884 313.333,36.027 313.510,36.125 313.725 C 36.323 314.159,38.304 316.987,38.595 317.250 C 38.865 317.494,40.267 319.397,40.506 319.845 C 40.734 320.271,40.915 320.505,41.433 321.049 C 41.626 321.251,42.222 321.979,42.758 322.667 C 43.294 323.354,43.774 323.954,43.824 324.000 C 43.875 324.046,44.099 324.346,44.323 324.667 C 44.546 324.987,44.896 325.438,45.101 325.667 C 45.306 325.896,45.789 326.458,46.175 326.917 C 47.441 328.419,48.562 329.712,49.928 331.243 C 50.668 332.072,51.531 333.039,51.845 333.393 C 52.159 333.746,53.362 335.002,54.517 336.184 C 55.672 337.366,56.592 338.333,56.562 338.333 C 56.274 338.333,65.572 347.146,68.083 349.253 C 68.725 349.791,69.400 350.391,69.583 350.587 C 69.767 350.782,70.292 351.236,70.750 351.596 C 71.208 351.956,71.790 352.464,72.042 352.726 C 72.294 352.988,72.500 353.142,72.500 353.068 C 72.500 352.995,72.744 353.162,73.042 353.440 C 73.340 353.717,74.183 354.419,74.917 355.000 C 75.650 355.580,76.344 356.169,76.458 356.309 C 76.573 356.449,76.668 356.493,76.669 356.407 C 76.671 356.319,76.726 356.325,76.794 356.419 C 76.862 356.512,77.704 357.184,78.667 357.913 C 79.629 358.642,80.492 359.324,80.583 359.428 C 80.675 359.533,81.425 360.054,82.250 360.586 C 83.075 361.118,83.997 361.767,84.298 362.028 C 84.827 362.484,88.076 364.710,88.417 364.849 C 88.508 364.886,89.521 365.552,90.667 366.329 C 91.813 367.106,92.793 367.743,92.845 367.746 C 92.898 367.748,93.072 367.881,93.232 368.042 C 93.393 368.202,93.588 368.333,93.667 368.333 C 93.829 368.333,95.051 369.052,96.667 370.097 C 98.154 371.059,101.213 372.860,101.419 372.896 C 101.511 372.912,102.536 373.467,103.695 374.129 C 104.855 374.791,105.845 375.333,105.894 375.333 C 105.944 375.333,106.364 375.556,106.826 375.829 C 107.288 376.102,107.667 376.284,107.667 376.234 C 107.667 376.185,107.884 376.299,108.151 376.489 C 108.417 376.678,108.684 376.833,108.744 376.833 C 108.835 376.833,111.797 378.264,116.000 380.338 C 116.504 380.587,117.292 380.929,117.750 381.098 C 118.208 381.267,119.167 381.689,119.880 382.036 C 120.594 382.383,121.248 382.667,121.334 382.667 C 121.420 382.667,121.886 382.846,122.370 383.065 C 124.368 383.971,125.644 384.467,125.736 384.375 C 125.789 384.322,125.833 384.357,125.833 384.454 C 125.833 384.608,126.251 384.784,126.958 384.928 C 127.072 384.951,127.822 385.232,128.625 385.551 C 130.338 386.234,134.068 387.598,134.667 387.761 C 134.896 387.823,135.158 387.930,135.250 387.997 C 136.040 388.582,142.332 388.835,142.333 388.282 C 142.333 388.208,142.405 388.191,142.492 388.245 C 142.707 388.378,144.577 387.733,145.435 387.230 C 147.411 386.072,149.044 383.720,149.669 381.131 C 150.010 379.716,150.024 375.258,149.776 344.883 C 149.746 341.182,149.805 341.308,148.250 341.603 C 147.608 341.725,146.821 341.866,146.500 341.917 C 146.179 341.967,145.791 342.048,145.638 342.095 C 145.156 342.244,144.593 342.360,144.333 342.364 C 144.196 342.367,143.183 342.511,142.083 342.686 C 140.983 342.861,139.708 343.046,139.250 343.097 C 138.792 343.147,137.817 343.262,137.083 343.352 C 132.169 343.951,123.891 343.909,119.049 343.260 C 117.205 343.013,116.892 342.959,115.583 342.664 C 112.741 342.022,111.542 341.780,111.288 341.795 C 111.126 341.805,111.025 341.761,111.063 341.698 C 111.102 341.635,110.928 341.568,110.675 341.550 C 109.852 341.491,106.242 340.158,103.667 338.963 C 102.888 338.601,101.669 338.039,100.958 337.713 C 100.248 337.387,99.667 337.056,99.667 336.977 C 99.667 336.898,99.589 336.833,99.493 336.833 C 99.398 336.833,99.117 336.693,98.868 336.521 C 98.260 336.100,96.035 334.625,95.694 334.417 C 95.544 334.325,95.308 334.137,95.169 333.999 C 95.030 333.860,94.603 333.535,94.220 333.276 C 92.689 332.240,87.339 326.688,87.334 326.131 C 87.334 326.065,87.127 325.797,86.875 325.534 C 86.623 325.272,86.154 324.623,85.833 324.093 C 85.513 323.563,84.997 322.743,84.687 322.273 C 84.377 321.802,83.901 320.892,83.628 320.250 C 83.356 319.608,83.033 318.858,82.911 318.583 C 82.789 318.308,82.375 317.333,81.991 316.417 C 81.607 315.500,80.974 314.112,80.585 313.333 C 80.196 312.554,79.821 311.729,79.752 311.500 C 79.629 311.090,78.528 309.034,77.621 307.521 C 77.367 307.097,77.069 306.544,76.959 306.292 C 76.850 306.040,76.703 305.833,76.632 305.833 C 76.562 305.833,76.247 305.322,75.932 304.697 C 73.489 299.845,65.332 291.323,60.975 289.070 C 60.588 288.870,58.329 287.184,56.956 286.071 C 56.795 285.940,56.593 285.833,56.508 285.833 C 56.265 285.833,53.626 282.748,53.208 281.975 C 52.329 280.348,53.623 277.833,55.338 277.833 C 55.488 277.833,55.667 277.777,55.736 277.708 C 55.805 277.640,55.930 277.574,56.014 277.563 C 56.098 277.551,56.185 277.526,56.208 277.507 C 56.249 277.474,56.994 277.364,57.500 277.316 C 57.637 277.304,58.125 277.225,58.583 277.141 C 60.190 276.849,65.917 277.129,65.917 277.500 C 65.917 277.537,66.505 277.649,67.083 277.722 C 69.734 278.060,78.117 282.125,80.012 283.992 C 80.157 284.134,80.756 284.587,81.344 285.000 C 82.659 285.923,87.275 290.543,88.202 291.864 C 88.576 292.397,88.946 292.833,89.024 292.833 C 89.103 292.833,89.167 292.942,89.167 293.075 C 89.167 293.208,89.261 293.377,89.376 293.450 C 89.627 293.610,90.404 294.630,91.063 295.664 C 91.326 296.078,91.589 296.454,91.646 296.500 C 91.807 296.629,92.343 297.550,92.446 297.875 C 92.497 298.035,92.593 298.167,92.658 298.167 C 92.724 298.167,92.778 298.262,92.778 298.378 C 92.778 298.605,93.961 300.423,94.657 301.265 C 94.892 301.549,95.604 302.505,96.241 303.390 C 96.877 304.276,97.471 305.000,97.560 305.000 C 97.649 305.000,97.683 305.039,97.635 305.087 C 97.587 305.135,97.818 305.454,98.149 305.796 C 98.480 306.137,99.332 307.045,100.042 307.813 C 100.752 308.582,101.334 309.144,101.336 309.063 C 101.337 308.983,101.394 308.993,101.461 309.086 C 101.528 309.178,102.146 309.730,102.833 310.312 C 103.521 310.894,104.368 311.613,104.715 311.910 C 105.063 312.208,105.551 312.556,105.799 312.684 C 106.047 312.812,106.287 312.958,106.333 313.009 C 106.677 313.393,112.186 316.323,112.621 316.354 C 112.784 316.366,112.445 316.437,111.870 316.512 C 110.286 316.717,108.861 317.580,108.822 318.355 C 108.816 318.481,108.783 318.792,108.749 319.047 C 108.550 320.562,110.591 322.397,112.953 322.825 C 116.734 323.511,118.788 320.542,116.258 318.048 C 115.535 317.335,115.709 317.185,116.683 317.682 C 116.829 317.756,117.129 317.856,117.349 317.903 C 117.570 317.951,118.050 318.067,118.417 318.162 C 123.796 319.552,132.448 319.402,138.550 317.814 C 139.302 317.618,140.067 317.434,140.250 317.405 C 140.599 317.349,140.916 317.279,141.750 317.076 C 142.705 316.843,145.371 315.961,145.809 315.732 C 146.052 315.606,146.351 315.502,146.475 315.501 C 146.598 315.500,146.936 315.391,147.225 315.258 C 147.514 315.125,148.349 314.755,149.081 314.437 L 150.412 313.857 150.603 312.637 C 150.947 310.442,150.986 310.237,151.247 309.238 C 151.389 308.695,151.538 307.987,151.579 307.667 C 151.750 306.322,153.261 301.724,153.823 300.841 C 153.966 300.616,154.075 300.391,154.065 300.341 C 154.055 300.291,154.298 299.697,154.607 299.021 C 154.915 298.345,155.167 297.775,155.167 297.754 C 155.167 297.457,157.324 293.907,158.421 292.399 C 160.142 290.034,160.238 289.923,161.907 288.370 C 162.625 287.702,163.183 287.130,163.148 287.098 C 163.112 287.065,162.688 286.992,162.204 286.935 C 161.721 286.877,160.333 286.690,159.121 286.519 C 157.909 286.348,156.804 286.209,156.667 286.211 C 156.529 286.212,156.079 286.167,155.667 286.109 C 155.254 286.051,154.504 285.961,154.000 285.909 C 153.496 285.857,152.521 285.707,151.833 285.577 C 147.280 284.716,146.094 284.480,144.826 284.184 C 144.042 284.002,143.217 283.817,142.992 283.775 C 142.354 283.654,139.714 283.012,138.333 282.642 C 137.646 282.457,136.933 282.277,136.750 282.242 C 134.722 281.852,130.393 280.474,126.833 279.087 C 126.054 278.783,124.823 278.335,124.098 278.093 C 122.821 277.665,122.118 277.366,119.833 276.280 C 119.237 275.997,118.739 275.799,118.726 275.841 C 118.713 275.883,118.556 275.785,118.379 275.625 C 118.201 275.464,118.006 275.383,117.945 275.444 C 117.883 275.505,117.833 275.474,117.833 275.375 C 117.833 275.276,117.477 275.063,117.042 274.902 C 116.606 274.741,116.175 274.558,116.083 274.495 C 115.992 274.431,115.279 274.052,114.500 273.652 C 113.721 273.252,112.633 272.638,112.083 272.289 C 111.533 271.940,110.877 271.566,110.625 271.458 C 110.373 271.349,110.167 271.202,110.167 271.130 C 110.167 271.059,110.091 271.000,109.999 271.000 C 109.906 271.000,109.520 270.775,109.140 270.500 C 108.761 270.225,108.353 270.000,108.235 270.000 C 108.117 270.000,107.774 269.775,107.473 269.500 C 107.172 269.225,106.830 269.000,106.713 269.000 C 106.596 269.000,106.500 268.937,106.500 268.861 C 106.500 268.784,105.956 268.353,105.292 267.902 C 104.627 267.452,104.045 267.033,103.999 266.972 C 103.952 266.911,103.220 266.341,102.372 265.705 C 98.964 263.149,95.401 259.599,91.509 254.883 C 91.342 254.681,91.247 254.475,91.298 254.425 C 91.348 254.374,91.283 254.333,91.153 254.332 C 91.023 254.332,90.786 254.125,90.627 253.874 C 90.316 253.381,89.135 251.744,88.793 251.330 C 88.568 251.058,88.150 250.430,86.965 248.583 C 85.139 245.736,84.667 244.986,84.667 244.927 C 84.667 244.893,84.408 244.408,84.092 243.849 C 83.777 243.291,83.557 242.833,83.604 242.833 C 83.651 242.833,83.552 242.627,83.385 242.375 C 82.586 241.174,79.851 235.154,79.806 234.500 C 79.803 234.454,79.718 234.267,79.617 234.083 C 79.515 233.900,79.419 233.675,79.403 233.583 C 79.386 233.492,78.955 232.217,78.445 230.750 C 77.361 227.633,76.248 223.969,75.990 222.667 C 75.796 221.684,75.711 221.299,75.660 221.167 C 75.643 221.121,75.611 221.008,75.589 220.917 C 75.568 220.825,75.533 220.713,75.511 220.667 C 75.490 220.621,75.449 220.433,75.421 220.250 C 75.260 219.194,75.141 218.554,75.064 218.333 C 74.945 217.986,73.959 212.486,73.751 211.000 C 73.140 206.650,72.784 203.381,72.580 200.250 C 72.520 199.333,72.443 198.283,72.409 197.917 C 72.199 195.660,72.147 187.992,72.322 184.833 C 72.649 178.896,73.563 172.554,74.591 169.083 C 74.726 168.625,74.871 168.100,74.912 167.917 C 74.953 167.733,75.094 167.194,75.225 166.718 C 75.357 166.243,75.423 165.811,75.371 165.760 C 75.320 165.709,75.362 165.667,75.465 165.667 C 75.619 165.667,75.837 164.985,75.916 164.250 C 75.952 163.920,76.215 163.069,76.508 162.333 C 76.673 161.921,77.010 161.058,77.258 160.417 C 77.505 159.775,78.044 158.500,78.454 157.583 C 78.864 156.667,79.333 155.617,79.497 155.250 C 79.660 154.883,79.847 154.410,79.911 154.197 C 80.015 153.859,80.624 152.735,82.414 149.583 C 82.674 149.125,82.968 148.600,83.068 148.417 C 83.168 148.233,83.325 148.028,83.417 147.961 C 83.528 147.879,83.528 147.837,83.417 147.833 C 83.306 147.830,83.306 147.787,83.417 147.706 C 83.508 147.638,83.769 147.227,83.997 146.792 C 84.224 146.356,84.451 146.000,84.502 146.000 C 84.553 146.000,84.737 145.756,84.910 145.458 C 85.353 144.698,87.027 142.428,87.194 142.361 C 87.271 142.331,87.333 142.234,87.333 142.146 C 87.333 142.058,87.408 141.895,87.500 141.785 C 87.592 141.674,88.011 141.105,88.432 140.520 C 89.212 139.438,89.952 138.555,90.625 137.906 C 90.831 137.708,91.000 137.490,91.000 137.422 C 91.000 137.354,91.188 137.150,91.417 136.970 C 91.646 136.790,91.833 136.535,91.833 136.405 C 91.833 136.274,91.890 136.164,91.958 136.161 C 92.648 136.133,92.683 135.346,92.079 133.460 C 91.748 132.428,91.453 131.471,91.423 131.333 C 91.392 131.196,91.233 130.633,91.069 130.083 C 89.527 124.914,88.503 116.428,88.734 110.724 C 88.968 104.935,90.028 97.503,91.130 93.917 C 91.215 93.642,91.264 93.285,91.240 93.125 C 91.216 92.965,91.258 92.833,91.333 92.833 C 91.447 92.833,91.702 91.874,91.753 91.250 C 91.761 91.158,91.886 90.708,92.032 90.250 C 92.178 89.792,92.428 88.967,92.588 88.417 C 92.748 87.867,92.963 87.311,93.065 87.183 C 93.167 87.054,93.240 86.904,93.228 86.849 C 93.216 86.795,93.273 86.576,93.353 86.364 C 93.434 86.152,93.500 85.901,93.500 85.806 C 93.500 85.711,93.609 85.397,93.743 85.109 C 93.876 84.820,94.144 84.152,94.338 83.625 C 94.532 83.098,94.741 82.663,94.804 82.658 C 94.866 82.654,95.254 82.597,95.667 82.533 C 96.953 82.333,104.250 82.456,104.250 82.677 C 104.250 82.695,104.400 82.732,104.583 82.760 C 104.767 82.788,105.179 82.859,105.500 82.917 C 105.821 82.975,106.346 83.050,106.667 83.082 C 108.107 83.230,114.591 85.041,116.750 85.900 C 117.300 86.119,118.200 86.462,118.750 86.662 C 120.710 87.377,124.764 89.070,125.583 89.516 C 126.042 89.765,126.829 90.139,127.333 90.347 C 127.837 90.556,128.475 90.881,128.750 91.071 C 129.025 91.260,129.250 91.384,129.250 91.346 C 129.250 91.269,131.978 92.619,132.250 92.829 C 132.408 92.952,133.200 93.387,135.667 94.706 C 136.913 95.372,139.481 96.893,141.417 98.111 C 142.150 98.573,142.814 98.950,142.892 98.951 C 142.971 98.952,143.421 99.227,143.892 99.564 C 144.364 99.901,145.575 100.716,146.583 101.375 C 147.592 102.035,148.442 102.633,148.473 102.705 C 148.503 102.777,148.597 102.793,148.681 102.741 C 148.765 102.689,148.833 102.736,148.833 102.845 C 148.833 102.986,149.085 103.012,149.708 102.936 C 150.719 102.812,151.250 102.723,151.250 102.676 C 151.250 102.658,151.467 102.615,151.732 102.581 C 151.997 102.546,152.334 102.465,152.482 102.400 C 152.629 102.336,152.825 102.265,152.917 102.243 C 153.008 102.221,153.571 102.075,154.167 101.918 C 154.762 101.761,155.438 101.600,155.667 101.560 C 155.896 101.521,156.308 101.418,156.583 101.333 C 156.858 101.247,157.346 101.134,157.667 101.081 C 157.987 101.029,158.512 100.916,158.833 100.831 C 160.140 100.485,167.147 99.134,168.000 99.063 C 168.504 99.021,169.367 98.915,169.917 98.826 C 171.165 98.626,175.302 98.046,176.417 97.915 C 176.875 97.861,177.813 97.743,178.500 97.652 C 179.188 97.561,180.125 97.455,180.583 97.415 C 181.042 97.376,182.354 97.263,183.500 97.165 C 184.646 97.067,185.883 96.958,186.250 96.921 C 193.536 96.195,212.911 96.619,220.000 97.658 C 220.596 97.745,221.533 97.863,222.083 97.918 C 222.633 97.974,223.271 98.048,223.500 98.082 C 224.210 98.188,226.379 98.493,227.167 98.598 C 227.579 98.653,228.104 98.732,228.333 98.774 C 228.563 98.816,229.041 98.879,229.397 98.914 C 231.527 99.125,238.809 100.553,242.167 101.417 C 242.671 101.546,243.271 101.691,243.500 101.738 C 244.303 101.901,247.189 102.661,247.323 102.744 C 247.397 102.790,247.820 102.871,248.261 102.924 C 248.703 102.977,249.125 103.057,249.199 103.103 C 249.273 103.149,249.333 103.116,249.333 103.029 C 249.333 102.943,249.465 102.825,249.625 102.767 C 250.003 102.630,250.135 102.547,253.034 100.625 C 254.382 99.731,255.537 99.000,255.602 99.000 C 255.666 99.000,255.964 98.813,256.265 98.583 C 256.565 98.354,256.848 98.167,256.894 98.167 C 257.003 98.167,259.060 96.955,259.167 96.828 C 259.292 96.678,261.990 95.085,262.750 94.711 C 263.117 94.531,264.204 93.948,265.167 93.416 C 266.698 92.569,267.453 92.175,269.750 91.025 C 270.025 90.887,270.362 90.722,270.500 90.658 C 270.637 90.594,271.050 90.390,271.417 90.204 C 272.663 89.572,277.078 87.635,278.417 87.132 C 284.170 84.972,289.124 83.452,291.083 83.246 C 291.542 83.197,292.104 83.115,292.333 83.063 C 295.014 82.451,300.414 82.170,302.500 82.533 C 303.829 82.764,304.126 83.044,304.407 84.333 C 304.457 84.563,304.976 86.175,305.561 87.917 C 306.997 92.190,307.836 95.243,308.158 97.359 C 308.318 98.413,308.400 98.893,308.611 100.000 C 308.673 100.321,308.711 100.636,308.697 100.700 C 308.684 100.764,308.740 101.177,308.823 101.617 C 308.907 102.057,309.027 102.867,309.090 103.417 C 309.153 103.967,309.234 104.567,309.270 104.750 C 309.756 107.232,309.637 118.761,309.096 121.606 C 308.908 122.595,308.483 125.206,308.420 125.764 C 308.269 127.094,307.504 129.994,306.607 132.634 L 305.685 135.352 306.301 136.051 C 306.639 136.436,306.958 136.787,307.009 136.833 C 307.085 136.901,309.018 139.324,310.894 141.702 C 311.825 142.882,312.022 143.156,312.006 143.247 C 311.996 143.301,312.085 143.452,312.202 143.584 C 312.527 143.945,312.725 144.221,313.000 144.697 C 313.137 144.936,313.382 145.307,313.542 145.524 C 314.327 146.578,315.658 148.774,316.558 150.500 C 317.108 151.554,317.606 152.454,317.664 152.500 C 317.761 152.576,318.614 154.304,319.737 156.699 C 319.982 157.221,320.210 157.794,320.245 157.972 C 320.279 158.150,320.384 158.435,320.478 158.606 C 321.281 160.065,323.774 168.094,324.184 170.542 C 324.302 171.252,324.446 171.833,324.503 171.833 C 324.560 171.833,324.615 172.040,324.625 172.292 C 324.635 172.544,324.691 173.012,324.748 173.333 C 326.057 180.667,326.576 192.114,325.913 199.000 C 325.874 199.412,325.722 201.137,325.577 202.833 C 325.431 204.529,325.283 206.104,325.248 206.333 C 325.212 206.563,325.101 207.425,324.999 208.250 C 324.898 209.075,324.782 209.975,324.742 210.250 C 324.429 212.375,324.314 213.138,324.253 213.500 C 324.215 213.729,324.141 214.302,324.089 214.774 C 323.870 216.765,322.168 223.981,321.325 226.500 C 321.156 227.004,320.868 227.979,320.685 228.667 C 319.964 231.381,318.591 234.945,316.670 239.083 C 316.415 239.633,316.199 240.140,316.189 240.209 C 316.147 240.506,314.973 242.683,313.426 245.333 C 313.185 245.746,312.877 246.308,312.742 246.583 C 312.209 247.664,310.293 250.540,309.375 251.636 C 309.169 251.882,309.000 252.177,309.000 252.292 C 309.000 252.406,308.927 252.500,308.838 252.500 C 308.748 252.500,308.565 252.713,308.430 252.974 C 308.295 253.235,307.649 254.079,306.994 254.849 C 306.339 255.620,305.454 256.662,305.027 257.166 C 303.109 259.429,299.929 262.509,297.356 264.597 C 297.140 264.773,296.615 265.235,296.190 265.625 C 295.765 266.015,295.362 266.333,295.294 266.333 C 295.174 266.333,294.699 266.692,294.237 267.131 C 294.113 267.249,293.966 267.335,293.909 267.322 C 293.852 267.310,293.496 267.551,293.116 267.858 C 292.202 268.598,290.169 270.003,289.750 270.184 C 289.567 270.263,289.146 270.498,288.815 270.705 C 288.483 270.913,287.658 271.413,286.981 271.815 C 286.304 272.217,285.375 272.791,284.917 273.090 C 284.045 273.659,281.972 274.667,281.674 274.667 C 281.578 274.667,281.500 274.742,281.500 274.833 C 281.500 274.925,281.406 275.000,281.292 275.000 C 281.177 275.000,280.408 275.331,279.583 275.736 C 276.989 277.009,275.512 277.639,273.583 278.294 C 273.033 278.481,272.058 278.829,271.417 279.068 C 268.502 280.153,263.536 281.765,262.634 281.920 C 262.331 281.971,261.845 282.078,261.553 282.157 C 261.261 282.236,260.980 282.258,260.928 282.206 C 260.876 282.154,260.833 282.182,260.833 282.269 C 260.833 282.356,260.639 282.443,260.402 282.463 C 260.164 282.483,259.884 282.552,259.780 282.616 C 259.675 282.681,259.475 282.748,259.336 282.764 C 259.197 282.781,258.108 283.030,256.917 283.317 C 253.853 284.055,252.725 284.297,250.167 284.765 C 245.515 285.616,245.129 285.678,243.000 285.917 C 241.352 286.102,240.939 286.153,239.083 286.405 C 238.075 286.541,236.800 286.701,236.250 286.759 C 235.700 286.817,235.218 286.895,235.180 286.933 C 235.141 286.971,235.816 287.698,236.680 288.549 C 237.543 289.400,238.475 290.384,238.750 290.736 C 239.880 292.183,240.500 293.091,240.500 293.299 C 240.500 293.421,240.575 293.473,240.667 293.417 C 240.758 293.360,240.833 293.405,240.833 293.516 C 240.833 293.627,241.021 293.964,241.250 294.265 C 241.479 294.565,241.667 294.851,241.667 294.899 C 241.667 294.947,242.183 295.889,242.815 296.991 C 243.446 298.093,244.014 299.202,244.076 299.455 C 244.139 299.709,244.381 300.367,244.614 300.917 C 245.276 302.479,245.276 302.480,245.899 304.417 C 247.219 308.519,248.266 313.670,248.212 315.792 C 248.206 315.998,248.250 316.167,248.309 316.167 C 248.368 316.167,248.418 316.448,248.420 316.792 C 248.421 317.135,248.484 318.504,248.559 319.833 C 248.698 322.306,248.702 336.263,248.571 364.526 C 248.518 375.904,248.549 380.605,248.680 380.943 C 248.781 381.204,248.896 381.604,248.936 381.833 C 249.233 383.561,251.744 386.763,253.333 387.442 C 253.471 387.501,253.888 387.684,254.261 387.848 C 254.634 388.013,255.121 388.177,255.344 388.215 C 255.567 388.252,255.900 388.346,256.083 388.425 C 256.487 388.598,260.036 388.622,261.391 388.462 C 262.173 388.369,264.997 387.445,266.917 386.654 C 267.100 386.578,268.300 386.137,269.583 385.673 C 270.867 385.208,272.163 384.717,272.464 384.581 C 272.765 384.445,273.085 384.333,273.174 384.333 C 273.264 384.333,273.655 384.187,274.043 384.009 C 274.432 383.831,275.425 383.410,276.250 383.074 C 277.075 382.738,277.825 382.411,277.917 382.347 C 278.063 382.245,278.692 381.968,281.583 380.732 C 281.950 380.575,282.287 380.438,282.333 380.427 C 282.521 380.383,286.707 378.335,288.750 377.287 C 289.025 377.146,289.475 376.930,289.750 376.807 C 290.025 376.684,290.287 376.546,290.333 376.500 C 290.379 376.454,291.354 375.935,292.500 375.346 C 293.646 374.758,295.033 374.004,295.583 373.671 C 296.133 373.339,296.883 372.930,297.250 372.762 C 297.617 372.595,298.029 372.360,298.167 372.241 C 298.304 372.121,298.462 372.037,298.517 372.054 C 298.573 372.070,298.798 371.949,299.017 371.785 C 299.237 371.621,299.942 371.188,300.583 370.822 C 302.675 369.629,303.249 369.285,303.333 369.174 C 303.379 369.114,303.660 368.966,303.958 368.845 C 304.256 368.725,304.500 368.579,304.500 368.520 C 304.500 368.462,304.729 368.314,305.008 368.190 C 305.287 368.066,305.719 367.794,305.968 367.585 C 306.216 367.376,306.649 367.065,306.929 366.894 C 308.512 365.930,312.496 363.262,313.781 362.307 C 314.439 361.817,315.142 361.304,315.343 361.167 C 315.543 361.029,315.811 360.818,315.937 360.696 C 316.063 360.575,316.167 360.521,316.167 360.575 C 316.167 360.693,318.306 359.117,319.833 357.874 C 320.429 357.389,321.007 356.919,321.118 356.829 C 321.229 356.740,321.381 356.667,321.456 356.667 C 321.531 356.667,321.716 356.535,321.868 356.375 C 322.266 355.953,322.633 355.667,322.785 355.661 C 322.857 355.658,323.179 355.390,323.500 355.065 C 323.821 354.740,324.646 354.052,325.333 353.535 C 326.021 353.018,326.664 352.517,326.763 352.422 C 326.861 352.328,327.424 351.830,328.013 351.316 C 328.602 350.803,329.796 349.761,330.667 349.002 C 333.566 346.473,341.714 338.716,343.229 337.043 C 344.101 336.079,344.581 335.560,345.667 334.406 C 346.354 333.675,347.404 332.517,348.000 331.832 C 349.732 329.840,350.213 329.305,350.839 328.676 C 351.162 328.350,351.665 327.746,351.955 327.333 C 352.246 326.921,352.768 326.272,353.117 325.892 C 353.847 325.094,354.387 324.427,355.667 322.740 C 356.171 322.076,357.183 320.767,357.917 319.831 C 358.650 318.895,359.220 318.119,359.184 318.106 C 359.147 318.094,359.276 317.896,359.470 317.667 C 361.132 315.704,367.879 305.876,367.731 305.635 C 367.685 305.561,367.715 305.500,367.797 305.500 C 367.880 305.500,368.149 305.144,368.395 304.708 C 368.641 304.273,369.181 303.392,369.596 302.750 C 370.010 302.108,370.391 301.452,370.444 301.292 C 370.496 301.131,370.591 301.000,370.655 301.000 C 370.720 301.000,371.030 300.494,371.344 299.875 C 371.659 299.256,372.292 298.111,372.750 297.330 C 373.842 295.468,374.065 295.077,374.597 294.083 C 374.843 293.625,375.093 293.212,375.152 293.167 C 375.212 293.121,375.467 292.596,375.718 292.000 C 375.970 291.404,376.551 290.242,377.011 289.417 C 377.805 287.989,378.297 286.999,379.329 284.750 C 380.453 282.302,380.827 281.495,381.453 280.167 C 381.820 279.387,382.178 278.563,382.247 278.333 C 382.317 278.104,382.431 277.842,382.502 277.750 C 382.622 277.592,383.405 275.667,383.789 274.583 C 383.887 274.308,384.543 272.658,385.248 270.917 C 386.355 268.180,387.444 265.297,387.576 264.750 C 387.598 264.658,387.657 264.471,387.706 264.333 C 388.495 262.145,390.920 254.383,391.092 253.500 C 391.154 253.179,391.261 252.842,391.330 252.750 C 391.399 252.658,391.504 252.358,391.563 252.083 C 391.622 251.808,391.710 251.396,391.759 251.167 C 391.808 250.938,392.291 248.950,392.831 246.750 C 393.842 242.639,395.320 235.795,395.586 234.000 C 395.634 233.679,395.709 233.229,395.754 233.000 C 395.799 232.771,395.874 232.171,395.921 231.667 C 395.968 231.162,396.078 230.338,396.165 229.833 C 396.803 226.151,397.692 218.884,397.910 215.583 C 397.965 214.758,398.042 213.783,398.082 213.417 C 398.660 208.102,398.746 194.892,398.251 187.333 C 398.212 186.737,398.138 185.575,398.086 184.750 C 398.035 183.925,397.959 182.950,397.918 182.583 C 397.877 182.217,397.799 181.392,397.744 180.750 C 397.560 178.603,396.484 170.331,396.069 167.870 C 395.925 167.019,395.780 166.044,395.747 165.703 C 395.662 164.842,395.505 163.798,395.416 163.500 C 395.375 163.362,395.299 162.950,395.246 162.583 C 395.144 161.866,394.781 160.030,394.421 158.417 C 394.298 157.867,394.032 156.667,393.829 155.750 C 393.626 154.833,393.085 152.621,392.628 150.833 C 392.170 149.046,391.775 147.433,391.749 147.250 C 391.724 147.067,391.589 146.542,391.449 146.083 C 391.310 145.625,390.954 144.387,390.659 143.333 C 390.165 141.570,388.207 135.430,387.576 133.667 C 387.429 133.254,387.282 132.795,387.251 132.646 C 387.219 132.497,387.009 131.897,386.782 131.312 C 386.029 129.367,384.025 124.257,383.817 123.750 C 383.704 123.475,383.603 123.212,383.593 123.167 C 383.482 122.673,382.903 121.333,382.800 121.333 C 382.727 121.333,382.667 121.222,382.667 121.087 C 382.667 120.951,382.396 120.258,382.066 119.545 C 381.736 118.833,381.058 117.350,380.559 116.250 C 380.061 115.150,379.431 113.797,379.160 113.243 C 378.889 112.690,378.667 112.152,378.667 112.049 C 378.667 111.946,378.610 111.836,378.542 111.806 C 378.473 111.775,377.668 110.250,376.753 108.417 C 375.838 106.583,375.042 105.046,374.984 105.000 C 374.926 104.954,374.826 104.748,374.761 104.542 C 374.697 104.335,374.574 104.167,374.489 104.167 C 374.403 104.167,374.333 104.042,374.333 103.891 C 374.333 103.739,374.157 103.383,373.941 103.099 C 373.725 102.815,373.495 102.415,373.430 102.209 C 373.365 102.004,373.223 101.741,373.114 101.626 C 373.006 101.511,372.761 101.117,372.571 100.750 C 371.685 99.040,370.206 96.517,368.827 94.367 C 368.280 93.514,367.833 92.779,367.833 92.734 C 367.833 92.598,364.990 88.299,364.426 87.583 C 364.137 87.217,363.755 86.634,363.578 86.289 C 363.400 85.945,363.067 85.459,362.836 85.210 C 362.605 84.961,362.417 84.706,362.417 84.642 C 362.417 84.579,362.249 84.333,362.043 84.097 C 361.838 83.861,361.391 83.274,361.051 82.792 C 360.711 82.311,360.054 81.381,359.591 80.727 C 359.129 80.073,357.850 78.397,356.750 77.002 C 355.650 75.608,354.590 74.247,354.395 73.977 C 354.200 73.707,353.563 72.950,352.979 72.296 C 352.395 71.642,351.917 71.067,351.917 71.017 C 351.917 70.967,351.729 70.719,351.500 70.465 C 351.271 70.211,350.896 69.774,350.667 69.492 C 350.438 69.211,349.923 68.639,349.523 68.223 C 349.123 67.806,348.343 66.929,347.791 66.274 C 347.238 65.619,346.582 64.896,346.332 64.667 C 346.082 64.438,345.409 63.725,344.836 63.083 C 343.069 61.106,342.317 60.333,342.155 60.333 C 342.070 60.333,342.000 60.221,342.000 60.083 C 342.000 59.946,341.942 59.833,341.872 59.833 C 341.703 59.833,339.333 57.500,339.333 57.334 C 339.333 57.264,339.090 57.020,338.792 56.793 C 338.494 56.566,337.447 55.601,336.467 54.648 C 335.486 53.696,334.211 52.504,333.633 52.000 C 333.056 51.496,331.978 50.502,331.239 49.792 C 330.499 49.081,329.837 48.500,329.768 48.500 C 329.699 48.500,329.544 48.406,329.424 48.292 C 329.303 48.177,328.813 47.746,328.334 47.333 C 327.855 46.921,327.154 46.292,326.778 45.936 C 326.401 45.580,325.595 44.905,324.985 44.436 C 324.376 43.967,322.862 42.777,321.622 41.792 C 320.381 40.806,319.284 40.000,319.183 40.000 C 319.082 40.000,318.999 39.944,318.999 39.875 C 318.998 39.806,318.717 39.563,318.374 39.335 C 318.031 39.106,317.712 38.877,317.667 38.825 C 317.621 38.773,317.063 38.362,316.427 37.911 C 315.791 37.461,315.079 36.912,314.844 36.691 C 314.609 36.470,314.192 36.193,313.917 36.076 C 313.642 35.959,312.656 35.313,311.727 34.640 C 310.798 33.967,309.503 33.079,308.849 32.667 C 308.195 32.254,306.648 31.260,305.412 30.458 C 304.176 29.656,303.095 29.000,303.011 29.000 C 302.926 29.000,302.755 28.906,302.630 28.792 C 302.401 28.581,302.198 28.457,300.885 27.724 C 300.487 27.501,299.908 27.154,299.600 26.951 C 298.675 26.346,297.925 25.938,297.792 25.970 C 297.723 25.986,297.667 25.936,297.667 25.859 C 297.667 25.781,297.348 25.577,296.958 25.405 C 296.569 25.233,296.212 25.046,296.167 24.989 C 296.121 24.932,295.877 24.779,295.625 24.651 C 293.949 23.796,292.726 23.144,291.417 22.409 C 290.592 21.946,289.542 21.391,289.083 21.177 C 288.625 20.963,287.125 20.244,285.750 19.579 C 281.651 17.599,279.928 16.794,279.724 16.764 C 279.618 16.748,279.205 16.577,278.807 16.384 C 278.409 16.191,277.633 15.863,277.083 15.656 C 276.533 15.449,276.001 15.216,275.900 15.139 C 275.799 15.063,275.236 14.819,274.650 14.598 C 274.063 14.376,272.762 13.849,271.758 13.425 C 270.754 13.001,269.817 12.632,269.675 12.605 C 269.533 12.577,269.229 12.475,269.000 12.377 C 268.771 12.279,267.871 11.959,267.000 11.665 C 266.129 11.370,263.703 10.538,261.609 9.815 C 259.515 9.092,257.733 8.542,257.651 8.593 C 257.568 8.644,257.500 8.607,257.500 8.510 C 257.500 8.413,257.444 8.345,257.375 8.360 C 257.306 8.374,257.137 8.345,257.000 8.296 C 256.862 8.246,256.375 8.121,255.917 8.019 C 255.458 7.916,254.708 7.726,254.250 7.597 C 251.306 6.765,250.032 6.416,248.333 5.974 C 245.361 5.202,244.667 5.038,244.667 5.111 C 244.667 5.148,244.535 5.108,244.375 5.022 C 244.215 4.937,243.858 4.828,243.583 4.780 C 243.308 4.733,242.521 4.572,241.833 4.424 C 241.146 4.275,240.321 4.113,240.000 4.064 C 239.679 4.015,237.917 3.686,236.083 3.334 C 234.250 2.982,232.487 2.650,232.167 2.596 C 231.846 2.543,231.396 2.461,231.167 2.414 C 230.159 2.210,222.793 1.186,221.601 1.084 C 220.877 1.022,220.165 0.949,220.018 0.922 C 219.481 0.822,217.711 0.662,216.083 0.567 C 213.885 0.437,213.047 0.374,211.250 0.199 C 209.928 0.071,189.107 -0.041,188.970 0.079 M70.417 280.376 C 67.453 281.362,70.183 285.368,73.407 284.763 C 74.346 284.587,75.045 283.710,74.900 282.890 C 74.602 281.203,72.118 279.810,70.417 280.376 M79.992 287.035 C 78.484 288.293,79.071 290.965,81.177 292.424 C 81.543 292.678,82.010 292.895,82.213 292.906 C 82.417 292.917,82.662 292.976,82.759 293.036 C 83.906 293.752,85.409 291.873,85.013 290.220 C 84.475 287.977,81.288 285.955,79.992 287.035 M87.003 296.959 C 85.246 297.841,85.210 300.207,86.922 302.361 C 89.359 305.430,92.986 304.163,92.021 300.579 C 91.923 300.215,91.834 299.842,91.824 299.750 C 91.814 299.658,91.727 299.490,91.632 299.375 C 91.537 299.260,91.509 299.167,91.569 299.167 C 91.678 299.167,91.286 298.695,90.500 297.884 C 89.603 296.957,87.902 296.507,87.003 296.959 M97.480 309.909 C 97.424 309.965,97.211 310.043,97.006 310.082 C 94.429 310.578,95.773 315.691,98.833 317.035 C 100.599 317.811,103.056 317.186,103.185 315.928 C 103.195 315.830,103.229 315.487,103.260 315.167 C 103.323 314.529,102.875 312.833,102.644 312.833 C 102.565 312.833,102.500 312.737,102.500 312.619 C 102.500 312.101,100.212 310.275,99.291 310.060 C 98.573 309.891,97.580 309.809,97.480 309.909 M127.687 320.154 C 124.442 321.274,124.462 324.687,127.720 325.663 C 131.917 326.920,135.831 323.620,133.149 321.086 C 131.861 319.869,129.620 319.486,127.687 320.154 M145.083 319.979 C 142.274 320.726,140.831 323.433,142.445 324.929 C 143.611 326.009,146.470 326.359,147.917 325.598 C 148.192 325.454,148.499 325.335,148.599 325.334 C 149.275 325.331,150.500 323.469,150.500 322.447 C 150.500 320.656,147.566 319.319,145.083 319.979 " stroke="none" fill="#ececec" fill-rule="evenodd"></path><path id="path1" d="M188.208 0.115 C 188.369 0.157,188.631 0.157,188.792 0.115 C 188.952 0.073,188.821 0.039,188.500 0.039 C 188.179 0.039,188.048 0.073,188.208 0.115 M84.542 36.019 C 83.974 36.383,83.790 36.627,84.292 36.351 C 84.674 36.141,85.273 35.678,85.167 35.675 C 85.121 35.673,84.840 35.828,84.542 36.019 M337.833 55.885 C 337.833 55.914,338.077 56.158,338.375 56.427 L 338.917 56.917 338.427 56.375 C 337.971 55.870,337.833 55.757,337.833 55.885 M56.406 60.042 L 55.917 60.583 56.458 60.094 C 56.963 59.638,57.077 59.500,56.948 59.500 C 56.919 59.500,56.675 59.744,56.406 60.042 M52.517 64.089 C 52.233 64.413,52.000 64.728,52.000 64.789 C 52.000 64.850,52.057 64.829,52.126 64.742 C 52.196 64.655,52.472 64.340,52.741 64.042 C 53.009 63.744,53.185 63.500,53.132 63.500 C 53.078 63.500,52.802 63.765,52.517 64.089 M149.208 103.115 C 149.369 103.157,149.631 103.157,149.792 103.115 C 149.952 103.073,149.821 103.039,149.500 103.039 C 149.179 103.039,149.048 103.073,149.208 103.115 M318.283 153.915 C 318.435 154.234,318.589 154.466,318.625 154.430 C 318.702 154.354,318.196 153.333,318.082 153.333 C 318.040 153.333,318.130 153.595,318.283 153.915 M395.814 166.536 C 395.890 166.999,395.914 167.023,395.966 166.689 C 396.000 166.472,395.960 166.226,395.876 166.142 C 395.783 166.050,395.759 166.205,395.814 166.536 M0.039 188.500 C 0.039 188.821,0.073 188.952,0.115 188.792 C 0.157 188.631,0.157 188.369,0.115 188.208 C 0.073 188.048,0.039 188.179,0.039 188.500 M62.347 289.887 C 62.385 289.917,62.679 290.111,63.000 290.318 L 63.583 290.694 63.083 290.265 C 62.808 290.028,62.515 289.835,62.431 289.834 C 62.347 289.834,62.309 289.858,62.347 289.887 M248.709 327.417 C 248.711 327.783,248.745 327.914,248.785 327.706 C 248.824 327.499,248.823 327.199,248.781 327.040 C 248.739 326.880,248.707 327.050,248.709 327.417 M339.406 340.875 L 338.917 341.417 339.458 340.927 C 339.963 340.471,340.077 340.333,339.948 340.333 C 339.919 340.333,339.675 340.577,339.406 340.875 M335.324 344.792 L 334.750 345.417 335.375 344.842 C 335.719 344.526,336.000 344.245,336.000 344.217 C 336.000 344.090,335.859 344.210,335.324 344.792 M331.242 348.542 L 330.583 349.250 331.292 348.591 C 331.681 348.229,332.000 347.910,332.000 347.883 C 332.000 347.757,331.855 347.883,331.242 348.542 M327.406 351.875 L 326.917 352.417 327.458 351.927 C 327.756 351.658,328.000 351.414,328.000 351.385 C 328.000 351.257,327.862 351.370,327.406 351.875 M93.833 368.508 C 94.411 368.901,94.741 369.015,94.333 368.682 C 94.104 368.494,93.842 368.340,93.750 368.340 C 93.658 368.339,93.696 368.415,93.833 368.508 " stroke="none" fill="#f0ecec" fill-rule="evenodd"></path><path id="path2" d="M188.208 0.115 C 188.369 0.157,188.631 0.157,188.792 0.115 C 188.952 0.073,188.821 0.039,188.500 0.039 C 188.179 0.039,188.048 0.073,188.208 0.115 M84.542 36.019 C 83.974 36.383,83.790 36.627,84.292 36.351 C 84.674 36.141,85.273 35.678,85.167 35.675 C 85.121 35.673,84.840 35.828,84.542 36.019 M337.833 55.885 C 337.833 55.914,338.077 56.158,338.375 56.427 L 338.917 56.917 338.427 56.375 C 337.971 55.870,337.833 55.757,337.833 55.885 M56.406 60.042 L 55.917 60.583 56.458 60.094 C 56.963 59.638,57.077 59.500,56.948 59.500 C 56.919 59.500,56.675 59.744,56.406 60.042 M52.517 64.089 C 52.233 64.413,52.000 64.728,52.000 64.789 C 52.000 64.850,52.057 64.829,52.126 64.742 C 52.196 64.655,52.472 64.340,52.741 64.042 C 53.009 63.744,53.185 63.500,53.132 63.500 C 53.078 63.500,52.802 63.765,52.517 64.089 M149.208 103.115 C 149.369 103.157,149.631 103.157,149.792 103.115 C 149.952 103.073,149.821 103.039,149.500 103.039 C 149.179 103.039,149.048 103.073,149.208 103.115 M318.283 153.915 C 318.435 154.234,318.589 154.466,318.625 154.430 C 318.702 154.354,318.196 153.333,318.082 153.333 C 318.040 153.333,318.130 153.595,318.283 153.915 M395.814 166.536 C 395.890 166.999,395.914 167.023,395.966 166.689 C 396.000 166.472,395.960 166.226,395.876 166.142 C 395.783 166.050,395.759 166.205,395.814 166.536 M0.039 188.500 C 0.039 188.821,0.073 188.952,0.115 188.792 C 0.157 188.631,0.157 188.369,0.115 188.208 C 0.073 188.048,0.039 188.179,0.039 188.500 M62.347 289.887 C 62.385 289.917,62.679 290.111,63.000 290.318 L 63.583 290.694 63.083 290.265 C 62.808 290.028,62.515 289.835,62.431 289.834 C 62.347 289.834,62.309 289.858,62.347 289.887 M248.709 327.417 C 248.711 327.783,248.745 327.914,248.785 327.706 C 248.824 327.499,248.823 327.199,248.781 327.040 C 248.739 326.880,248.707 327.050,248.709 327.417 M339.406 340.875 L 338.917 341.417 339.458 340.927 C 339.963 340.471,340.077 340.333,339.948 340.333 C 339.919 340.333,339.675 340.577,339.406 340.875 M335.324 344.792 L 334.750 345.417 335.375 344.842 C 335.719 344.526,336.000 344.245,336.000 344.217 C 336.000 344.090,335.859 344.210,335.324 344.792 M331.242 348.542 L 330.583 349.250 331.292 348.591 C 331.681 348.229,332.000 347.910,332.000 347.883 C 332.000 347.757,331.855 347.883,331.242 348.542 M327.406 351.875 L 326.917 352.417 327.458 351.927 C 327.756 351.658,328.000 351.414,328.000 351.385 C 328.000 351.257,327.862 351.370,327.406 351.875 M93.833 368.508 C 94.411 368.901,94.741 369.015,94.333 368.682 C 94.104 368.494,93.842 368.340,93.750 368.340 C 93.658 368.339,93.696 368.415,93.833 368.508 " stroke="none" fill="#f0ecec" fill-rule="evenodd"></path><path id="path3" d="M188.208 0.115 C 188.369 0.157,188.631 0.157,188.792 0.115 C 188.952 0.073,188.821 0.039,188.500 0.039 C 188.179 0.039,188.048 0.073,188.208 0.115 M84.542 36.019 C 83.974 36.383,83.790 36.627,84.292 36.351 C 84.674 36.141,85.273 35.678,85.167 35.675 C 85.121 35.673,84.840 35.828,84.542 36.019 M337.833 55.885 C 337.833 55.914,338.077 56.158,338.375 56.427 L 338.917 56.917 338.427 56.375 C 337.971 55.870,337.833 55.757,337.833 55.885 M56.406 60.042 L 55.917 60.583 56.458 60.094 C 56.963 59.638,57.077 59.500,56.948 59.500 C 56.919 59.500,56.675 59.744,56.406 60.042 M52.517 64.089 C 52.233 64.413,52.000 64.728,52.000 64.789 C 52.000 64.850,52.057 64.829,52.126 64.742 C 52.196 64.655,52.472 64.340,52.741 64.042 C 53.009 63.744,53.185 63.500,53.132 63.500 C 53.078 63.500,52.802 63.765,52.517 64.089 M149.208 103.115 C 149.369 103.157,149.631 103.157,149.792 103.115 C 149.952 103.073,149.821 103.039,149.500 103.039 C 149.179 103.039,149.048 103.073,149.208 103.115 M318.283 153.915 C 318.435 154.234,318.589 154.466,318.625 154.430 C 318.702 154.354,318.196 153.333,318.082 153.333 C 318.040 153.333,318.130 153.595,318.283 153.915 M395.814 166.536 C 395.890 166.999,395.914 167.023,395.966 166.689 C 396.000 166.472,395.960 166.226,395.876 166.142 C 395.783 166.050,395.759 166.205,395.814 166.536 M0.039 188.500 C 0.039 188.821,0.073 188.952,0.115 188.792 C 0.157 188.631,0.157 188.369,0.115 188.208 C 0.073 188.048,0.039 188.179,0.039 188.500 M62.347 289.887 C 62.385 289.917,62.679 290.111,63.000 290.318 L 63.583 290.694 63.083 290.265 C 62.808 290.028,62.515 289.835,62.431 289.834 C 62.347 289.834,62.309 289.858,62.347 289.887 M248.709 327.417 C 248.711 327.783,248.745 327.914,248.785 327.706 C 248.824 327.499,248.823 327.199,248.781 327.040 C 248.739 326.880,248.707 327.050,248.709 327.417 M339.406 340.875 L 338.917 341.417 339.458 340.927 C 339.963 340.471,340.077 340.333,339.948 340.333 C 339.919 340.333,339.675 340.577,339.406 340.875 M335.324 344.792 L 334.750 345.417 335.375 344.842 C 335.719 344.526,336.000 344.245,336.000 344.217 C 336.000 344.090,335.859 344.210,335.324 344.792 M331.242 348.542 L 330.583 349.250 331.292 348.591 C 331.681 348.229,332.000 347.910,332.000 347.883 C 332.000 347.757,331.855 347.883,331.242 348.542 M327.406 351.875 L 326.917 352.417 327.458 351.927 C 327.756 351.658,328.000 351.414,328.000 351.385 C 328.000 351.257,327.862 351.370,327.406 351.875 M93.833 368.508 C 94.411 368.901,94.741 369.015,94.333 368.682 C 94.104 368.494,93.842 368.340,93.750 368.340 C 93.658 368.339,93.696 368.415,93.833 368.508 " stroke="none" fill="#f0ecec" fill-rule="evenodd"></path><path id="path4" d="M188.208 0.115 C 188.369 0.157,188.631 0.157,188.792 0.115 C 188.952 0.073,188.821 0.039,188.500 0.039 C 188.179 0.039,188.048 0.073,188.208 0.115 M84.542 36.019 C 83.974 36.383,83.790 36.627,84.292 36.351 C 84.674 36.141,85.273 35.678,85.167 35.675 C 85.121 35.673,84.840 35.828,84.542 36.019 M337.833 55.885 C 337.833 55.914,338.077 56.158,338.375 56.427 L 338.917 56.917 338.427 56.375 C 337.971 55.870,337.833 55.757,337.833 55.885 M56.406 60.042 L 55.917 60.583 56.458 60.094 C 56.963 59.638,57.077 59.500,56.948 59.500 C 56.919 59.500,56.675 59.744,56.406 60.042 M52.517 64.089 C 52.233 64.413,52.000 64.728,52.000 64.789 C 52.000 64.850,52.057 64.829,52.126 64.742 C 52.196 64.655,52.472 64.340,52.741 64.042 C 53.009 63.744,53.185 63.500,53.132 63.500 C 53.078 63.500,52.802 63.765,52.517 64.089 M149.208 103.115 C 149.369 103.157,149.631 103.157,149.792 103.115 C 149.952 103.073,149.821 103.039,149.500 103.039 C 149.179 103.039,149.048 103.073,149.208 103.115 M318.283 153.915 C 318.435 154.234,318.589 154.466,318.625 154.430 C 318.702 154.354,318.196 153.333,318.082 153.333 C 318.040 153.333,318.130 153.595,318.283 153.915 M395.814 166.536 C 395.890 166.999,395.914 167.023,395.966 166.689 C 396.000 166.472,395.960 166.226,395.876 166.142 C 395.783 166.050,395.759 166.205,395.814 166.536 M0.039 188.500 C 0.039 188.821,0.073 188.952,0.115 188.792 C 0.157 188.631,0.157 188.369,0.115 188.208 C 0.073 188.048,0.039 188.179,0.039 188.500 M62.347 289.887 C 62.385 289.917,62.679 290.111,63.000 290.318 L 63.583 290.694 63.083 290.265 C 62.808 290.028,62.515 289.835,62.431 289.834 C 62.347 289.834,62.309 289.858,62.347 289.887 M248.709 327.417 C 248.711 327.783,248.745 327.914,248.785 327.706 C 248.824 327.499,248.823 327.199,248.781 327.040 C 248.739 326.880,248.707 327.050,248.709 327.417 M339.406 340.875 L 338.917 341.417 339.458 340.927 C 339.963 340.471,340.077 340.333,339.948 340.333 C 339.919 340.333,339.675 340.577,339.406 340.875 M335.324 344.792 L 334.750 345.417 335.375 344.842 C 335.719 344.526,336.000 344.245,336.000 344.217 C 336.000 344.090,335.859 344.210,335.324 344.792 M331.242 348.542 L 330.583 349.250 331.292 348.591 C 331.681 348.229,332.000 347.910,332.000 347.883 C 332.000 347.757,331.855 347.883,331.242 348.542 M327.406 351.875 L 326.917 352.417 327.458 351.927 C 327.756 351.658,328.000 351.414,328.000 351.385 C 328.000 351.257,327.862 351.370,327.406 351.875 M93.833 368.508 C 94.411 368.901,94.741 369.015,94.333 368.682 C 94.104 368.494,93.842 368.340,93.750 368.340 C 93.658 368.339,93.696 368.415,93.833 368.508 " stroke="none" fill="#f0ecec" fill-rule="evenodd"></path></g></svg>